<?xml version="1.0" encoding="utf-8"?>
<!-- Generator: Adobe Illustrator 15.0.0, SVG Export Plug-In . SVG Version: 6.00 Build 0)  -->
<!DOCTYPE svg PUBLIC "-//W3C//DTD SVG 1.1//EN" "http://www.w3.org/Graphics/SVG/1.1/DTD/svg11.dtd">
<svg version="1.1" id="Capa_1" xmlns="http://www.w3.org/2000/svg" xmlns:xlink="http://www.w3.org/1999/xlink" x="0px" y="0px"
	 width="100px" height="100px" viewBox="0 0 100 100" enable-background="new 0 0 100 100" xml:space="preserve">
<g id="Capa_24">
	<path fill="#6F777B" d="M50,3.917c-14.4,0-26.069,11.677-26.069,26.072c0,0.745,0.042,1.472,0.099,2.201
		c0.025,0.259,0.057,0.529,0.088,0.781c0.046,0.439,0.103,0.871,0.177,1.3c0.057,0.344,0.11,0.68,0.182,1.015
		c0.045,0.229,0.106,0.461,0.155,0.69c2.371,10.317,10.398,18.591,16.586,32.757c1.85,4.239,3.465,8.781,4.787,12.934L50,96.083
		l3.994-14.419c1.323-4.15,2.938-8.694,4.787-12.933c6.187-14.166,14.218-22.44,16.577-32.757c0.062-0.23,0.107-0.461,0.156-0.69
		c0.067-0.333,0.127-0.67,0.184-1.015c0.066-0.429,0.138-0.861,0.184-1.3c0.03-0.252,0.062-0.521,0.084-0.781
		c0.064-0.729,0.104-1.456,0.104-2.201C76.068,15.594,64.399,3.917,50,3.917z M49.995,41.772c-6.502,0-11.779-5.28-11.779-11.787
		c0-6.506,5.277-11.779,11.779-11.779c6.51,0,11.788,5.273,11.788,11.779C61.782,36.493,56.507,41.772,49.995,41.772z"/>
</g>
</svg>
