<?xml version="1.0" encoding="utf-8"?>
<!-- Generator: Adobe Illustrator 15.0.0, SVG Export Plug-In . SVG Version: 6.00 Build 0)  -->
<!DOCTYPE svg PUBLIC "-//W3C//DTD SVG 1.1//EN" "http://www.w3.org/Graphics/SVG/1.1/DTD/svg11.dtd">
<svg version="1.1" id="Layer_1" xmlns="http://www.w3.org/2000/svg" xmlns:xlink="http://www.w3.org/1999/xlink" x="0px" y="0px"
	 width="100px" height="100px" viewBox="0 0 100 100" enable-background="new 0 0 100 100" xml:space="preserve">
<path fill="#6F777B" d="M50.001,3.917C24.55,3.917,3.917,24.551,3.917,50c0,25.453,20.633,46.083,46.084,46.083
	c25.45,0,46.082-20.63,46.082-46.083C96.083,24.551,75.451,3.917,50.001,3.917 M76.927,82.724c-0.914-0.413-1.997-0.908-2.607-1.122
	c-2.685-0.952-5.457-1.683-8.253-2.226c-3.838-0.749-5.186-2.556-5.401-6.577c-0.031-0.582-0.8-5.457-0.188-5.762
	c2.547-1.273,2.963-5.319,3.196-7.792c0.175-1.823,1.123-2.651,1.964-4.144c0.918-1.63,1.363-3.477,1.858-5.265
	c0.367-1.309,1.016-3.487,0.771-4.839c-0.231-1.249-1.174-2.406-1.174-3.738c0-1.714,0.664-3.528,0.848-5.243
	c0.292-2.646,0.243-5.325-0.283-7.941c-1.404-7.031-8.258-9.592-14.639-10.959c-6.012-1.288-13.045,1.822-17.111,6.047
	c-1.668,1.736-3.715,3.917-4.037,6.408c-0.292,2.293-0.265,5.022,0.079,7.296c0.18,1.194,0.285,2.403,0.439,3.601
	c0.125,0.958,0.822,1.862,0.562,2.827c-0.15,0.569-0.487,1.065-0.749,1.591c-1.236,2.473,0.071,5.854,1.176,8.137
	c0.521,1.073,1.129,2.136,1.887,3.062c0.912,1.112,0.947,1.896,0.999,3.321c0.093,2.521,0.823,6.76,3.365,8.029
	c0.616,0.308-0.265,4.78-0.297,5.362c-0.216,4.021,0.283,5.828-3.56,6.577c-2.795,0.543-5.566,1.276-8.253,2.226
	c-1.028,0.365-2.642,0.991-3.92,1.542C13.863,75.366,7.604,63.405,7.604,50c0-23.375,19.021-42.396,42.397-42.396
	c23.376,0,42.396,19.021,42.396,42.396C92.396,63.165,86.368,74.94,76.927,82.724"/>
</svg>
