<?xml version="1.0" encoding="utf-8"?>
<!-- Generator: Adobe Illustrator 15.0.0, SVG Export Plug-In . SVG Version: 6.00 Build 0)  -->
<!DOCTYPE svg PUBLIC "-//W3C//DTD SVG 1.1//EN" "http://www.w3.org/Graphics/SVG/1.1/DTD/svg11.dtd">
<svg version="1.1" id="Document" xmlns="http://www.w3.org/2000/svg" xmlns:xlink="http://www.w3.org/1999/xlink" x="0px" y="0px"
	 width="100px" height="100px" viewBox="0 0 100 100" enable-background="new 0 0 100 100" xml:space="preserve">
<path fill="#6F777B" d="M82.673,19.753L69.247,5.209c-0.634-0.688-1.529-1.08-2.466-1.08H22.029c-3.085,0-5.594,2.509-5.594,5.594
	v80.554c0,3.084,2.509,5.593,5.594,5.593h55.939c3.086,0,5.596-2.509,5.596-5.593V22.03C83.564,21.187,83.246,20.375,82.673,19.753z
	 M76.851,89.159H23.148V10.842h39.158v9.765c0,1.4,1.44,2.542,2.839,2.542h11.526l0.179,0.194V89.159z M30.979,37.693h17.901
	c1.854,0,3.355-1.503,3.355-3.356c0-1.854-1.502-3.356-3.355-3.356H30.979c-1.854,0-3.356,1.502-3.356,3.356
	C27.623,36.19,29.126,37.693,30.979,37.693z M67.9,45.525H30.979c-1.854,0-3.356,1.503-3.356,3.355c0,1.856,1.503,3.357,3.356,3.357
	H67.9c1.853,0,3.357-1.501,3.357-3.357C71.258,47.028,69.753,45.525,67.9,45.525z M60.068,60.069H30.979
	c-1.854,0-3.356,1.502-3.356,3.357c0,1.853,1.503,3.355,3.356,3.355h29.089c1.854,0,3.357-1.503,3.357-3.355
	C63.426,61.571,61.923,60.069,60.068,60.069z"/>
</svg>
