<svg xmlns="http://www.w3.org/2000/svg" xmlns:xlink="http://www.w3.org/1999/xlink" xmlns:sketch="http://www.bohemiancoding.com/sketch/ns" width="16px" height="16px" viewBox="0 0 16 16" version="1.1">
    <!-- Generator: Sketch 3.2.2 (9983) - http://www.bohemiancoding.com/sketch -->
    <title>settings</title>
    <desc>Created with Sketch.</desc>
    <defs/>
    <g id="Page-1" stroke="none" stroke-width="1" fill="none" fill-rule="evenodd" sketch:type="MSPage">
        <g id="settings" sketch:type="MSArtboardGroup" fill="#6F777B">
            <path d="M13.8999565,6.90305962 L15.9282032,5.73205081 L13.9282032,2.26794919 L11.8990821,3.43946282 C11.3444578,2.96483228 10.702229,2.58961368 10,2.34141138 L10,0 L6,0 L6,2.34141138 C5.29777103,2.58961368 4.6555422,2.96483228 4.10091789,3.43946282 L2.07179677,2.26794919 L0.0717967697,5.73205081 L2.10004353,6.90305962 C2.03433976,7.2587021 2,7.62534081 2,8 C2,8.37465919 2.03433976,8.7412979 2.10004353,9.09694038 L0.0717967697,10.2679492 L2.07179677,13.7320508 L4.10091789,12.5605372 C4.6555422,13.0351677 5.29777103,13.4103863 6,13.6585886 L6,16 L10,16 L10,13.6585886 C10.702229,13.4103863 11.3444578,13.0351677 11.8990821,12.5605372 L13.9282032,13.7320508 L15.9282032,10.2679492 L13.8999565,9.09694038 C13.9656602,8.7412979 14,8.37465919 14,8 C14,7.62534081 13.9656602,7.2587021 13.8999565,6.90305962 Z M11.5,8 C11.5,6.06700328 9.93299672,4.5 8,4.5 C6.06700328,4.5 4.5,6.06700328 4.5,8 C4.5,9.93299672 6.06700328,11.5 8,11.5 C9.93299672,11.5 11.5,9.93299672 11.5,8 Z" id="Oval-10" sketch:type="MSShapeGroup"/>
        </g>
    </g>
</svg>